<svg width="762" height="128" xmlns="http://www.w3.org/2000/svg"><style>.day { shape-rendering: geometricPrecision; }</style><rect class="day" x="10" y="10" width="10" height="10" fill="#ebedf0" rx="2" ry="2" data-date="2025-01-26" data-count="0"/><rect class="day" x="10" y="24" width="10" height="10" fill="#ebedf0" rx="2" ry="2" data-date="2025-01-27" data-count="0"/><rect class="day" x="10" y="38" width="10" height="10" fill="#ebedf0" rx="2" ry="2" data-date="2025-01-28" data-count="0"/><rect class="day" x="10" y="52" width="10" height="10" fill="#ebedf0" rx="2" ry="2" data-date="2025-01-29" data-count="0"/><rect class="day" x="10" y="66" width="10" height="10" fill="#ebedf0" rx="2" ry="2" data-date="2025-01-30" data-count="0"/><rect class="day" x="10" y="80" width="10" height="10" fill="#ebedf0" rx="2" ry="2" data-date="2025-01-31" data-count="0"/><rect class="day" x="10" y="94" width="10" height="10" fill="#ebedf0" rx="2" ry="2" data-date="2025-02-01" data-count="0"/><rect class="day" x="24" y="10" width="10" height="10" fill="#ebedf0" rx="2" ry="2" data-date="2025-02-02" data-count="0"/><rect class="day" x="24" y="24" width="10" height="10" fill="#ebedf0" rx="2" ry="2" data-date="2025-02-03" data-count="0"/><rect class="day" x="24" y="38" width="10" height="10" fill="#ebedf0" rx="2" ry="2" data-date="2025-02-04" data-count="0"/><rect class="day" x="24" y="52" width="10" height="10" fill="#ebedf0" rx="2" ry="2" data-date="2025-02-05" data-count="0"/><rect class="day" x="24" y="66" width="10" height="10" fill="#ebedf0" rx="2" ry="2" data-date="2025-02-06" data-count="0"/><rect class="day" x="24" y="80" width="10" height="10" fill="#ebedf0" rx="2" ry="2" data-date="2025-02-07" data-count="0"/><rect class="day" x="24" y="94" width="10" height="10" fill="#ebedf0" rx="2" ry="2" data-date="2025-02-08" data-count="0"/><rect class="day" x="38" y="10" width="10" height="10" fill="#ebedf0" rx="2" ry="2" data-date="2025-02-09" data-count="0"/><rect class="day" x="38" y="24" width="10" height="10" fill="#ebedf0" rx="2" ry="2" data-date="2025-02-10" data-count="0"/><rect class="day" x="38" y="38" width="10" height="10" fill="#ebedf0" rx="2" ry="2" data-date="2025-02-11" data-count="0"/><rect class="day" x="38" y="52" width="10" height="10" fill="#ebedf0" rx="2" ry="2" data-date="2025-02-12" data-count="0"/><rect class="day" x="38" y="66" width="10" height="10" fill="#ebedf0" rx="2" ry="2" data-date="2025-02-13" data-count="0"/><rect class="day" x="38" y="80" width="10" height="10" fill="#ebedf0" rx="2" ry="2" data-date="2025-02-14" data-count="0"/><rect class="day" x="38" y="94" width="10" height="10" fill="#ebedf0" rx="2" ry="2" data-date="2025-02-15" data-count="0"/><rect class="day" x="52" y="10" width="10" height="10" fill="#ebedf0" rx="2" ry="2" data-date="2025-02-16" data-count="0"/><rect class="day" x="52" y="24" width="10" height="10" fill="#ebedf0" rx="2" ry="2" data-date="2025-02-17" data-count="0"/><rect class="day" x="52" y="38" width="10" height="10" fill="#ebedf0" rx="2" ry="2" data-date="2025-02-18" data-count="0"/><rect class="day" x="52" y="52" width="10" height="10" fill="#ebedf0" rx="2" ry="2" data-date="2025-02-19" data-count="0"/><rect class="day" x="52" y="66" width="10" height="10" fill="#ebedf0" rx="2" ry="2" data-date="2025-02-20" data-count="0"/><rect class="day" x="52" y="80" width="10" height="10" fill="#ebedf0" rx="2" ry="2" data-date="2025-02-21" data-count="0"/><rect class="day" x="52" y="94" width="10" height="10" fill="#ebedf0" rx="2" ry="2" data-date="2025-02-22" data-count="0"/><rect class="day" x="66" y="10" width="10" height="10" fill="#ebedf0" rx="2" ry="2" data-date="2025-02-23" data-count="0"/><rect class="day" x="66" y="24" width="10" height="10" fill="#ebedf0" rx="2" ry="2" data-date="2025-02-24" data-count="0"/><rect class="day" x="66" y="38" width="10" height="10" fill="#ebedf0" rx="2" ry="2" data-date="2025-02-25" data-count="0"/><rect class="day" x="66" y="52" width="10" height="10" fill="#ebedf0" rx="2" ry="2" data-date="2025-02-26" data-count="0"/><rect class="day" x="66" y="66" width="10" height="10" fill="#ebedf0" rx="2" ry="2" data-date="2025-02-27" data-count="0"/><rect class="day" x="66" y="80" width="10" height="10" fill="#ebedf0" rx="2" ry="2" data-date="2025-02-28" data-count="0"/><rect class="day" x="66" y="94" width="10" height="10" fill="#ebedf0" rx="2" ry="2" data-date="2025-03-01" data-count="0"/><rect class="day" x="80" y="10" width="10" height="10" fill="#ebedf0" rx="2" ry="2" data-date="2025-03-02" data-count="0"/><rect class="day" x="80" y="24" width="10" height="10" fill="#ebedf0" rx="2" ry="2" data-date="2025-03-03" data-count="0"/><rect class="day" x="80" y="38" width="10" height="10" fill="#ebedf0" rx="2" ry="2" data-date="2025-03-04" data-count="0"/><rect class="day" x="80" y="52" width="10" height="10" fill="#ebedf0" rx="2" ry="2" data-date="2025-03-05" data-count="0"/><rect class="day" x="80" y="66" width="10" height="10" fill="#ebedf0" rx="2" ry="2" data-date="2025-03-06" data-count="0"/><rect class="day" x="80" y="80" width="10" height="10" fill="#ebedf0" rx="2" ry="2" data-date="2025-03-07" data-count="0"/><rect class="day" x="80" y="94" width="10" height="10" fill="#ebedf0" rx="2" ry="2" data-date="2025-03-08" data-count="0"/><rect class="day" x="94" y="10" width="10" height="10" fill="#ebedf0" rx="2" ry="2" data-date="2025-03-09" data-count="0"/><rect class="day" x="94" y="24" width="10" height="10" fill="#ebedf0" rx="2" ry="2" data-date="2025-03-10" data-count="0"/><rect class="day" x="94" y="38" width="10" height="10" fill="#ebedf0" rx="2" ry="2" data-date="2025-03-11" data-count="0"/><rect class="day" x="94" y="52" width="10" height="10" fill="#ebedf0" rx="2" ry="2" data-date="2025-03-12" data-count="0"/><rect class="day" x="94" y="66" width="10" height="10" fill="#ebedf0" rx="2" ry="2" data-date="2025-03-13" data-count="0"/><rect class="day" x="94" y="80" width="10" height="10" fill="#ebedf0" rx="2" ry="2" data-date="2025-03-14" data-count="0"/><rect class="day" x="94" y="94" width="10" height="10" fill="#ebedf0" rx="2" ry="2" data-date="2025-03-15" data-count="0"/><rect class="day" x="108" y="10" width="10" height="10" fill="#ebedf0" rx="2" ry="2" data-date="2025-03-16" data-count="0"/><rect class="day" x="108" y="24" width="10" height="10" fill="#ebedf0" rx="2" ry="2" data-date="2025-03-17" data-count="0"/><rect class="day" x="108" y="38" width="10" height="10" fill="#ebedf0" rx="2" ry="2" data-date="2025-03-18" data-count="0"/><rect class="day" x="108" y="52" width="10" height="10" fill="#ebedf0" rx="2" ry="2" data-date="2025-03-19" data-count="0"/><rect class="day" x="108" y="66" width="10" height="10" fill="#ebedf0" rx="2" ry="2" data-date="2025-03-20" data-count="0"/><rect class="day" x="108" y="80" width="10" height="10" fill="#ebedf0" rx="2" ry="2" data-date="2025-03-21" data-count="0"/><rect class="day" x="108" y="94" width="10" height="10" fill="#ebedf0" rx="2" ry="2" data-date="2025-03-22" data-count="0"/><rect class="day" x="122" y="10" width="10" height="10" fill="#ebedf0" rx="2" ry="2" data-date="2025-03-23" data-count="0"/><rect class="day" x="122" y="24" width="10" height="10" fill="#ebedf0" rx="2" ry="2" data-date="2025-03-24" data-count="0"/><rect class="day" x="122" y="38" width="10" height="10" fill="#ebedf0" rx="2" ry="2" data-date="2025-03-25" data-count="0"/><rect class="day" x="122" y="52" width="10" height="10" fill="#ebedf0" rx="2" ry="2" data-date="2025-03-26" data-count="0"/><rect class="day" x="122" y="66" width="10" height="10" fill="#ebedf0" rx="2" ry="2" data-date="2025-03-27" data-count="0"/><rect class="day" x="122" y="80" width="10" height="10" fill="#ebedf0" rx="2" ry="2" data-date="2025-03-28" data-count="0"/><rect class="day" x="122" y="94" width="10" height="10" fill="#ebedf0" rx="2" ry="2" data-date="2025-03-29" data-count="0"/><rect class="day" x="136" y="10" width="10" height="10" fill="#ebedf0" rx="2" ry="2" data-date="2025-03-30" data-count="0"/><rect class="day" x="136" y="24" width="10" height="10" fill="#ebedf0" rx="2" ry="2" data-date="2025-03-31" data-count="0"/><rect class="day" x="136" y="38" width="10" height="10" fill="#ebedf0" rx="2" ry="2" data-date="2025-04-01" data-count="0"/><rect class="day" x="136" y="52" width="10" height="10" fill="#ebedf0" rx="2" ry="2" data-date="2025-04-02" data-count="0"/><rect class="day" x="136" y="66" width="10" height="10" fill="#ebedf0" rx="2" ry="2" data-date="2025-04-03" data-count="0"/><rect class="day" x="136" y="80" width="10" height="10" fill="#ebedf0" rx="2" ry="2" data-date="2025-04-04" data-count="0"/><rect class="day" x="136" y="94" width="10" height="10" fill="#ebedf0" rx="2" ry="2" data-date="2025-04-05" data-count="0"/><rect class="day" x="150" y="10" width="10" height="10" fill="#ebedf0" rx="2" ry="2" data-date="2025-04-06" data-count="0"/><rect class="day" x="150" y="24" width="10" height="10" fill="#ebedf0" rx="2" ry="2" data-date="2025-04-07" data-count="0"/><rect class="day" x="150" y="38" width="10" height="10" fill="#ebedf0" rx="2" ry="2" data-date="2025-04-08" data-count="0"/><rect class="day" x="150" y="52" width="10" height="10" fill="#ebedf0" rx="2" ry="2" data-date="2025-04-09" data-count="0"/><rect class="day" x="150" y="66" width="10" height="10" fill="#ebedf0" rx="2" ry="2" data-date="2025-04-10" data-count="0"/><rect class="day" x="150" y="80" width="10" height="10" fill="#ebedf0" rx="2" ry="2" data-date="2025-04-11" data-count="0"/><rect class="day" x="150" y="94" width="10" height="10" fill="#ebedf0" rx="2" ry="2" data-date="2025-04-12" data-count="0"/><rect class="day" x="164" y="10" width="10" height="10" fill="#ebedf0" rx="2" ry="2" data-date="2025-04-13" data-count="0"/><rect class="day" x="164" y="24" width="10" height="10" fill="#ebedf0" rx="2" ry="2" data-date="2025-04-14" data-count="0"/><rect class="day" x="164" y="38" width="10" height="10" fill="#ebedf0" rx="2" ry="2" data-date="2025-04-15" data-count="0"/><rect class="day" x="164" y="52" width="10" height="10" fill="#ebedf0" rx="2" ry="2" data-date="2025-04-16" data-count="0"/><rect class="day" x="164" y="66" width="10" height="10" fill="#ebedf0" rx="2" ry="2" data-date="2025-04-17" data-count="0"/><rect class="day" x="164" y="80" width="10" height="10" fill="#ebedf0" rx="2" ry="2" data-date="2025-04-18" data-count="0"/><rect class="day" x="164" y="94" width="10" height="10" fill="#ebedf0" rx="2" ry="2" data-date="2025-04-19" data-count="0"/><rect class="day" x="178" y="10" width="10" height="10" fill="#ebedf0" rx="2" ry="2" data-date="2025-04-20" data-count="0"/><rect class="day" x="178" y="24" width="10" height="10" fill="#ebedf0" rx="2" ry="2" data-date="2025-04-21" data-count="0"/><rect class="day" x="178" y="38" width="10" height="10" fill="#ebedf0" rx="2" ry="2" data-date="2025-04-22" data-count="0"/><rect class="day" x="178" y="52" width="10" height="10" fill="#ebedf0" rx="2" ry="2" data-date="2025-04-23" data-count="0"/><rect class="day" x="178" y="66" width="10" height="10" fill="#ebedf0" rx="2" ry="2" data-date="2025-04-24" data-count="0"/><rect class="day" x="178" y="80" width="10" height="10" fill="#ebedf0" rx="2" ry="2" data-date="2025-04-25" data-count="0"/><rect class="day" x="178" y="94" width="10" height="10" fill="#ebedf0" rx="2" ry="2" data-date="2025-04-26" data-count="0"/><rect class="day" x="192" y="10" width="10" height="10" fill="#ebedf0" rx="2" ry="2" data-date="2025-04-27" data-count="0"/><rect class="day" x="192" y="24" width="10" height="10" fill="#ebedf0" rx="2" ry="2" data-date="2025-04-28" data-count="0"/><rect class="day" x="192" y="38" width="10" height="10" fill="#ebedf0" rx="2" ry="2" data-date="2025-04-29" data-count="0"/><rect class="day" x="192" y="52" width="10" height="10" fill="#ebedf0" rx="2" ry="2" data-date="2025-04-30" data-count="0"/><rect class="day" x="192" y="66" width="10" height="10" fill="#ebedf0" rx="2" ry="2" data-date="2025-05-01" data-count="0"/><rect class="day" x="192" y="80" width="10" height="10" fill="#ebedf0" rx="2" ry="2" data-date="2025-05-02" data-count="0"/><rect class="day" x="192" y="94" width="10" height="10" fill="#ebedf0" rx="2" ry="2" data-date="2025-05-03" data-count="0"/><rect class="day" x="206" y="10" width="10" height="10" fill="#ebedf0" rx="2" ry="2" data-date="2025-05-04" data-count="0"/><rect class="day" x="206" y="24" width="10" height="10" fill="#ebedf0" rx="2" ry="2" data-date="2025-05-05" data-count="0"/><rect class="day" x="206" y="38" width="10" height="10" fill="#ebedf0" rx="2" ry="2" data-date="2025-05-06" data-count="0"/><rect class="day" x="206" y="52" width="10" height="10" fill="#ebedf0" rx="2" ry="2" data-date="2025-05-07" data-count="0"/><rect class="day" x="206" y="66" width="10" height="10" fill="#ebedf0" rx="2" ry="2" data-date="2025-05-08" data-count="0"/><rect class="day" x="206" y="80" width="10" height="10" fill="#ebedf0" rx="2" ry="2" data-date="2025-05-09" data-count="0"/><rect class="day" x="206" y="94" width="10" height="10" fill="#ebedf0" rx="2" ry="2" data-date="2025-05-10" data-count="0"/><rect class="day" x="220" y="10" width="10" height="10" fill="#ebedf0" rx="2" ry="2" data-date="2025-05-11" data-count="0"/><rect class="day" x="220" y="24" width="10" height="10" fill="#ebedf0" rx="2" ry="2" data-date="2025-05-12" data-count="0"/><rect class="day" x="220" y="38" width="10" height="10" fill="#ebedf0" rx="2" ry="2" data-date="2025-05-13" data-count="0"/><rect class="day" x="220" y="52" width="10" height="10" fill="#ebedf0" rx="2" ry="2" data-date="2025-05-14" data-count="0"/><rect class="day" x="220" y="66" width="10" height="10" fill="#ebedf0" rx="2" ry="2" data-date="2025-05-15" data-count="0"/><rect class="day" x="220" y="80" width="10" height="10" fill="#ebedf0" rx="2" ry="2" data-date="2025-05-16" data-count="0"/><rect class="day" x="220" y="94" width="10" height="10" fill="#ebedf0" rx="2" ry="2" data-date="2025-05-17" data-count="0"/><rect class="day" x="234" y="10" width="10" height="10" fill="#ebedf0" rx="2" ry="2" data-date="2025-05-18" data-count="0"/><rect class="day" x="234" y="24" width="10" height="10" fill="#ebedf0" rx="2" ry="2" data-date="2025-05-19" data-count="0"/><rect class="day" x="234" y="38" width="10" height="10" fill="#ebedf0" rx="2" ry="2" data-date="2025-05-20" data-count="0"/><rect class="day" x="234" y="52" width="10" height="10" fill="#ebedf0" rx="2" ry="2" data-date="2025-05-21" data-count="0"/><rect class="day" x="234" y="66" width="10" height="10" fill="#ebedf0" rx="2" ry="2" data-date="2025-05-22" data-count="0"/><rect class="day" x="234" y="80" width="10" height="10" fill="#ebedf0" rx="2" ry="2" data-date="2025-05-23" data-count="0"/><rect class="day" x="234" y="94" width="10" height="10" fill="#ebedf0" rx="2" ry="2" data-date="2025-05-24" data-count="0"/><rect class="day" x="248" y="10" width="10" height="10" fill="#ebedf0" rx="2" ry="2" data-date="2025-05-25" data-count="0"/><rect class="day" x="248" y="24" width="10" height="10" fill="#ebedf0" rx="2" ry="2" data-date="2025-05-26" data-count="0"/><rect class="day" x="248" y="38" width="10" height="10" fill="#ebedf0" rx="2" ry="2" data-date="2025-05-27" data-count="0"/><rect class="day" x="248" y="52" width="10" height="10" fill="#ebedf0" rx="2" ry="2" data-date="2025-05-28" data-count="0"/><rect class="day" x="248" y="66" width="10" height="10" fill="#ebedf0" rx="2" ry="2" data-date="2025-05-29" data-count="0"/><rect class="day" x="248" y="80" width="10" height="10" fill="#ebedf0" rx="2" ry="2" data-date="2025-05-30" data-count="0"/><rect class="day" x="248" y="94" width="10" height="10" fill="#ebedf0" rx="2" ry="2" data-date="2025-05-31" data-count="0"/><rect class="day" x="262" y="10" width="10" height="10" fill="#ebedf0" rx="2" ry="2" data-date="2025-06-01" data-count="0"/><rect class="day" x="262" y="24" width="10" height="10" fill="#ebedf0" rx="2" ry="2" data-date="2025-06-02" data-count="0"/><rect class="day" x="262" y="38" width="10" height="10" fill="#ebedf0" rx="2" ry="2" data-date="2025-06-03" data-count="0"/><rect class="day" x="262" y="52" width="10" height="10" fill="#ebedf0" rx="2" ry="2" data-date="2025-06-04" data-count="0"/><rect class="day" x="262" y="66" width="10" height="10" fill="#ebedf0" rx="2" ry="2" data-date="2025-06-05" data-count="0"/><rect class="day" x="262" y="80" width="10" height="10" fill="#ebedf0" rx="2" ry="2" data-date="2025-06-06" data-count="0"/><rect class="day" x="262" y="94" width="10" height="10" fill="#ebedf0" rx="2" ry="2" data-date="2025-06-07" data-count="0"/><rect class="day" x="276" y="10" width="10" height="10" fill="#ebedf0" rx="2" ry="2" data-date="2025-06-08" data-count="0"/><rect class="day" x="276" y="24" width="10" height="10" fill="#ebedf0" rx="2" ry="2" data-date="2025-06-09" data-count="0"/><rect class="day" x="276" y="38" width="10" height="10" fill="#ebedf0" rx="2" ry="2" data-date="2025-06-10" data-count="0"/><rect class="day" x="276" y="52" width="10" height="10" fill="#ebedf0" rx="2" ry="2" data-date="2025-06-11" data-count="0"/><rect class="day" x="276" y="66" width="10" height="10" fill="#ebedf0" rx="2" ry="2" data-date="2025-06-12" data-count="0"/><rect class="day" x="276" y="80" width="10" height="10" fill="#ebedf0" rx="2" ry="2" data-date="2025-06-13" data-count="0"/><rect class="day" x="276" y="94" width="10" height="10" fill="#ebedf0" rx="2" ry="2" data-date="2025-06-14" data-count="0"/><rect class="day" x="290" y="10" width="10" height="10" fill="#ebedf0" rx="2" ry="2" data-date="2025-06-15" data-count="0"/><rect class="day" x="290" y="24" width="10" height="10" fill="#ebedf0" rx="2" ry="2" data-date="2025-06-16" data-count="0"/><rect class="day" x="290" y="38" width="10" height="10" fill="#ebedf0" rx="2" ry="2" data-date="2025-06-17" data-count="0"/><rect class="day" x="290" y="52" width="10" height="10" fill="#ebedf0" rx="2" ry="2" data-date="2025-06-18" data-count="0"/><rect class="day" x="290" y="66" width="10" height="10" fill="#ebedf0" rx="2" ry="2" data-date="2025-06-19" data-count="0"/><rect class="day" x="290" y="80" width="10" height="10" fill="#ebedf0" rx="2" ry="2" data-date="2025-06-20" data-count="0"/><rect class="day" x="290" y="94" width="10" height="10" fill="#ebedf0" rx="2" ry="2" data-date="2025-06-21" data-count="0"/><rect class="day" x="304" y="10" width="10" height="10" fill="#ebedf0" rx="2" ry="2" data-date="2025-06-22" data-count="0"/><rect class="day" x="304" y="24" width="10" height="10" fill="#ebedf0" rx="2" ry="2" data-date="2025-06-23" data-count="0"/><rect class="day" x="304" y="38" width="10" height="10" fill="#ebedf0" rx="2" ry="2" data-date="2025-06-24" data-count="0"/><rect class="day" x="304" y="52" width="10" height="10" fill="#ebedf0" rx="2" ry="2" data-date="2025-06-25" data-count="0"/><rect class="day" x="304" y="66" width="10" height="10" fill="#ebedf0" rx="2" ry="2" data-date="2025-06-26" data-count="0"/><rect class="day" x="304" y="80" width="10" height="10" fill="#ebedf0" rx="2" ry="2" data-date="2025-06-27" data-count="0"/><rect class="day" x="304" y="94" width="10" height="10" fill="#ebedf0" rx="2" ry="2" data-date="2025-06-28" data-count="0"/><rect class="day" x="318" y="10" width="10" height="10" fill="#ebedf0" rx="2" ry="2" data-date="2025-06-29" data-count="0"/><rect class="day" x="318" y="24" width="10" height="10" fill="#ebedf0" rx="2" ry="2" data-date="2025-06-30" data-count="0"/><rect class="day" x="318" y="38" width="10" height="10" fill="#ebedf0" rx="2" ry="2" data-date="2025-07-01" data-count="0"/><rect class="day" x="318" y="52" width="10" height="10" fill="#ebedf0" rx="2" ry="2" data-date="2025-07-02" data-count="0"/><rect class="day" x="318" y="66" width="10" height="10" fill="#ebedf0" rx="2" ry="2" data-date="2025-07-03" data-count="0"/><rect class="day" x="318" y="80" width="10" height="10" fill="#ebedf0" rx="2" ry="2" data-date="2025-07-04" data-count="0"/><rect class="day" x="318" y="94" width="10" height="10" fill="#ebedf0" rx="2" ry="2" data-date="2025-07-05" data-count="0"/><rect class="day" x="332" y="10" width="10" height="10" fill="#ebedf0" rx="2" ry="2" data-date="2025-07-06" data-count="0"/><rect class="day" x="332" y="24" width="10" height="10" fill="#ebedf0" rx="2" ry="2" data-date="2025-07-07" data-count="0"/><rect class="day" x="332" y="38" width="10" height="10" fill="#ebedf0" rx="2" ry="2" data-date="2025-07-08" data-count="0"/><rect class="day" x="332" y="52" width="10" height="10" fill="#ebedf0" rx="2" ry="2" data-date="2025-07-09" data-count="0"/><rect class="day" x="332" y="66" width="10" height="10" fill="#ebedf0" rx="2" ry="2" data-date="2025-07-10" data-count="0"/><rect class="day" x="332" y="80" width="10" height="10" fill="#ebedf0" rx="2" ry="2" data-date="2025-07-11" data-count="0"/><rect class="day" x="332" y="94" width="10" height="10" fill="#ebedf0" rx="2" ry="2" data-date="2025-07-12" data-count="0"/><rect class="day" x="346" y="10" width="10" height="10" fill="#ebedf0" rx="2" ry="2" data-date="2025-07-13" data-count="0"/><rect class="day" x="346" y="24" width="10" height="10" fill="#ebedf0" rx="2" ry="2" data-date="2025-07-14" data-count="0"/><rect class="day" x="346" y="38" width="10" height="10" fill="#ebedf0" rx="2" ry="2" data-date="2025-07-15" data-count="0"/><rect class="day" x="346" y="52" width="10" height="10" fill="#ebedf0" rx="2" ry="2" data-date="2025-07-16" data-count="0"/><rect class="day" x="346" y="66" width="10" height="10" fill="#ebedf0" rx="2" ry="2" data-date="2025-07-17" data-count="0"/><rect class="day" x="346" y="80" width="10" height="10" fill="#ebedf0" rx="2" ry="2" data-date="2025-07-18" data-count="0"/><rect class="day" x="346" y="94" width="10" height="10" fill="#ebedf0" rx="2" ry="2" data-date="2025-07-19" data-count="0"/><rect class="day" x="360" y="10" width="10" height="10" fill="#ebedf0" rx="2" ry="2" data-date="2025-07-20" data-count="0"/><rect class="day" x="360" y="24" width="10" height="10" fill="#ebedf0" rx="2" ry="2" data-date="2025-07-21" data-count="0"/><rect class="day" x="360" y="38" width="10" height="10" fill="#ebedf0" rx="2" ry="2" data-date="2025-07-22" data-count="0"/><rect class="day" x="360" y="52" width="10" height="10" fill="#ebedf0" rx="2" ry="2" data-date="2025-07-23" data-count="0"/><rect class="day" x="360" y="66" width="10" height="10" fill="#ebedf0" rx="2" ry="2" data-date="2025-07-24" data-count="0"/><rect class="day" x="360" y="80" width="10" height="10" fill="#ebedf0" rx="2" ry="2" data-date="2025-07-25" data-count="0"/><rect class="day" x="360" y="94" width="10" height="10" fill="#ebedf0" rx="2" ry="2" data-date="2025-07-26" data-count="0"/><rect class="day" x="374" y="10" width="10" height="10" fill="#ebedf0" rx="2" ry="2" data-date="2025-07-27" data-count="0"/><rect class="day" x="374" y="24" width="10" height="10" fill="#ebedf0" rx="2" ry="2" data-date="2025-07-28" data-count="0"/><rect class="day" x="374" y="38" width="10" height="10" fill="#ebedf0" rx="2" ry="2" data-date="2025-07-29" data-count="0"/><rect class="day" x="374" y="52" width="10" height="10" fill="#ebedf0" rx="2" ry="2" data-date="2025-07-30" data-count="0"/><rect class="day" x="374" y="66" width="10" height="10" fill="#ebedf0" rx="2" ry="2" data-date="2025-07-31" data-count="0"/><rect class="day" x="374" y="80" width="10" height="10" fill="#ebedf0" rx="2" ry="2" data-date="2025-08-01" data-count="0"/><rect class="day" x="374" y="94" width="10" height="10" fill="#ebedf0" rx="2" ry="2" data-date="2025-08-02" data-count="0"/><rect class="day" x="388" y="10" width="10" height="10" fill="#ebedf0" rx="2" ry="2" data-date="2025-08-03" data-count="0"/><rect class="day" x="388" y="24" width="10" height="10" fill="#ebedf0" rx="2" ry="2" data-date="2025-08-04" data-count="0"/><rect class="day" x="388" y="38" width="10" height="10" fill="#ebedf0" rx="2" ry="2" data-date="2025-08-05" data-count="0"/><rect class="day" x="388" y="52" width="10" height="10" fill="#ebedf0" rx="2" ry="2" data-date="2025-08-06" data-count="0"/><rect class="day" x="388" y="66" width="10" height="10" fill="#ebedf0" rx="2" ry="2" data-date="2025-08-07" data-count="0"/><rect class="day" x="388" y="80" width="10" height="10" fill="#ebedf0" rx="2" ry="2" data-date="2025-08-08" data-count="0"/><rect class="day" x="388" y="94" width="10" height="10" fill="#ebedf0" rx="2" ry="2" data-date="2025-08-09" data-count="0"/><rect class="day" x="402" y="10" width="10" height="10" fill="#ebedf0" rx="2" ry="2" data-date="2025-08-10" data-count="0"/><rect class="day" x="402" y="24" width="10" height="10" fill="#ebedf0" rx="2" ry="2" data-date="2025-08-11" data-count="0"/><rect class="day" x="402" y="38" width="10" height="10" fill="#ebedf0" rx="2" ry="2" data-date="2025-08-12" data-count="0"/><rect class="day" x="402" y="52" width="10" height="10" fill="#ebedf0" rx="2" ry="2" data-date="2025-08-13" data-count="0"/><rect class="day" x="402" y="66" width="10" height="10" fill="#ebedf0" rx="2" ry="2" data-date="2025-08-14" data-count="0"/><rect class="day" x="402" y="80" width="10" height="10" fill="#ebedf0" rx="2" ry="2" data-date="2025-08-15" data-count="0"/><rect class="day" x="402" y="94" width="10" height="10" fill="#ebedf0" rx="2" ry="2" data-date="2025-08-16" data-count="0"/><rect class="day" x="416" y="10" width="10" height="10" fill="#ebedf0" rx="2" ry="2" data-date="2025-08-17" data-count="0"/><rect class="day" x="416" y="24" width="10" height="10" fill="#ebedf0" rx="2" ry="2" data-date="2025-08-18" data-count="0"/><rect class="day" x="416" y="38" width="10" height="10" fill="#ebedf0" rx="2" ry="2" data-date="2025-08-19" data-count="0"/><rect class="day" x="416" y="52" width="10" height="10" fill="#ebedf0" rx="2" ry="2" data-date="2025-08-20" data-count="0"/><rect class="day" x="416" y="66" width="10" height="10" fill="#ebedf0" rx="2" ry="2" data-date="2025-08-21" data-count="0"/><rect class="day" x="416" y="80" width="10" height="10" fill="#ebedf0" rx="2" ry="2" data-date="2025-08-22" data-count="0"/><rect class="day" x="416" y="94" width="10" height="10" fill="#ebedf0" rx="2" ry="2" data-date="2025-08-23" data-count="0"/><rect class="day" x="430" y="10" width="10" height="10" fill="#ebedf0" rx="2" ry="2" data-date="2025-08-24" data-count="0"/><rect class="day" x="430" y="24" width="10" height="10" fill="#ebedf0" rx="2" ry="2" data-date="2025-08-25" data-count="0"/><rect class="day" x="430" y="38" width="10" height="10" fill="#ebedf0" rx="2" ry="2" data-date="2025-08-26" data-count="0"/><rect class="day" x="430" y="52" width="10" height="10" fill="#ebedf0" rx="2" ry="2" data-date="2025-08-27" data-count="0"/><rect class="day" x="430" y="66" width="10" height="10" fill="#ebedf0" rx="2" ry="2" data-date="2025-08-28" data-count="0"/><rect class="day" x="430" y="80" width="10" height="10" fill="#ebedf0" rx="2" ry="2" data-date="2025-08-29" data-count="0"/><rect class="day" x="430" y="94" width="10" height="10" fill="#ebedf0" rx="2" ry="2" data-date="2025-08-30" data-count="0"/><rect class="day" x="444" y="10" width="10" height="10" fill="#ebedf0" rx="2" ry="2" data-date="2025-08-31" data-count="0"/><rect class="day" x="444" y="24" width="10" height="10" fill="#ebedf0" rx="2" ry="2" data-date="2025-09-01" data-count="0"/><rect class="day" x="444" y="38" width="10" height="10" fill="#ebedf0" rx="2" ry="2" data-date="2025-09-02" data-count="0"/><rect class="day" x="444" y="52" width="10" height="10" fill="#ebedf0" rx="2" ry="2" data-date="2025-09-03" data-count="0"/><rect class="day" x="444" y="66" width="10" height="10" fill="#ebedf0" rx="2" ry="2" data-date="2025-09-04" data-count="0"/><rect class="day" x="444" y="80" width="10" height="10" fill="#ebedf0" rx="2" ry="2" data-date="2025-09-05" data-count="0"/><rect class="day" x="444" y="94" width="10" height="10" fill="#ebedf0" rx="2" ry="2" data-date="2025-09-06" data-count="0"/><rect class="day" x="458" y="10" width="10" height="10" fill="#ebedf0" rx="2" ry="2" data-date="2025-09-07" data-count="0"/><rect class="day" x="458" y="24" width="10" height="10" fill="#ebedf0" rx="2" ry="2" data-date="2025-09-08" data-count="0"/><rect class="day" x="458" y="38" width="10" height="10" fill="#ebedf0" rx="2" ry="2" data-date="2025-09-09" data-count="0"/><rect class="day" x="458" y="52" width="10" height="10" fill="#ebedf0" rx="2" ry="2" data-date="2025-09-10" data-count="0"/><rect class="day" x="458" y="66" width="10" height="10" fill="#ebedf0" rx="2" ry="2" data-date="2025-09-11" data-count="0"/><rect class="day" x="458" y="80" width="10" height="10" fill="#ebedf0" rx="2" ry="2" data-date="2025-09-12" data-count="0"/><rect class="day" x="458" y="94" width="10" height="10" fill="#ebedf0" rx="2" ry="2" data-date="2025-09-13" data-count="0"/><rect class="day" x="472" y="10" width="10" height="10" fill="#ebedf0" rx="2" ry="2" data-date="2025-09-14" data-count="0"/><rect class="day" x="472" y="24" width="10" height="10" fill="#ebedf0" rx="2" ry="2" data-date="2025-09-15" data-count="0"/><rect class="day" x="472" y="38" width="10" height="10" fill="#ebedf0" rx="2" ry="2" data-date="2025-09-16" data-count="0"/><rect class="day" x="472" y="52" width="10" height="10" fill="#ebedf0" rx="2" ry="2" data-date="2025-09-17" data-count="0"/><rect class="day" x="472" y="66" width="10" height="10" fill="#ebedf0" rx="2" ry="2" data-date="2025-09-18" data-count="0"/><rect class="day" x="472" y="80" width="10" height="10" fill="#ebedf0" rx="2" ry="2" data-date="2025-09-19" data-count="0"/><rect class="day" x="472" y="94" width="10" height="10" fill="#ebedf0" rx="2" ry="2" data-date="2025-09-20" data-count="0"/><rect class="day" x="486" y="10" width="10" height="10" fill="#ebedf0" rx="2" ry="2" data-date="2025-09-21" data-count="0"/><rect class="day" x="486" y="24" width="10" height="10" fill="#ebedf0" rx="2" ry="2" data-date="2025-09-22" data-count="0"/><rect class="day" x="486" y="38" width="10" height="10" fill="#ebedf0" rx="2" ry="2" data-date="2025-09-23" data-count="0"/><rect class="day" x="486" y="52" width="10" height="10" fill="#ebedf0" rx="2" ry="2" data-date="2025-09-24" data-count="0"/><rect class="day" x="486" y="66" width="10" height="10" fill="#ebedf0" rx="2" ry="2" data-date="2025-09-25" data-count="0"/><rect class="day" x="486" y="80" width="10" height="10" fill="#ebedf0" rx="2" ry="2" data-date="2025-09-26" data-count="0"/><rect class="day" x="486" y="94" width="10" height="10" fill="#ebedf0" rx="2" ry="2" data-date="2025-09-27" data-count="0"/><rect class="day" x="500" y="10" width="10" height="10" fill="#ebedf0" rx="2" ry="2" data-date="2025-09-28" data-count="0"/><rect class="day" x="500" y="24" width="10" height="10" fill="#ebedf0" rx="2" ry="2" data-date="2025-09-29" data-count="0"/><rect class="day" x="500" y="38" width="10" height="10" fill="#ebedf0" rx="2" ry="2" data-date="2025-09-30" data-count="0"/><rect class="day" x="500" y="52" width="10" height="10" fill="#ebedf0" rx="2" ry="2" data-date="2025-10-01" data-count="0"/><rect class="day" x="500" y="66" width="10" height="10" fill="#ebedf0" rx="2" ry="2" data-date="2025-10-02" data-count="0"/><rect class="day" x="500" y="80" width="10" height="10" fill="#ebedf0" rx="2" ry="2" data-date="2025-10-03" data-count="0"/><rect class="day" x="500" y="94" width="10" height="10" fill="#ebedf0" rx="2" ry="2" data-date="2025-10-04" data-count="0"/><rect class="day" x="514" y="10" width="10" height="10" fill="#ebedf0" rx="2" ry="2" data-date="2025-10-05" data-count="0"/><rect class="day" x="514" y="24" width="10" height="10" fill="#ebedf0" rx="2" ry="2" data-date="2025-10-06" data-count="0"/><rect class="day" x="514" y="38" width="10" height="10" fill="#ebedf0" rx="2" ry="2" data-date="2025-10-07" data-count="0"/><rect class="day" x="514" y="52" width="10" height="10" fill="#ebedf0" rx="2" ry="2" data-date="2025-10-08" data-count="0"/><rect class="day" x="514" y="66" width="10" height="10" fill="#ebedf0" rx="2" ry="2" data-date="2025-10-09" data-count="0"/><rect class="day" x="514" y="80" width="10" height="10" fill="#ebedf0" rx="2" ry="2" data-date="2025-10-10" data-count="0"/><rect class="day" x="514" y="94" width="10" height="10" fill="#ebedf0" rx="2" ry="2" data-date="2025-10-11" data-count="0"/><rect class="day" x="528" y="10" width="10" height="10" fill="#ebedf0" rx="2" ry="2" data-date="2025-10-12" data-count="0"/><rect class="day" x="528" y="24" width="10" height="10" fill="#ebedf0" rx="2" ry="2" data-date="2025-10-13" data-count="0"/><rect class="day" x="528" y="38" width="10" height="10" fill="#ebedf0" rx="2" ry="2" data-date="2025-10-14" data-count="0"/><rect class="day" x="528" y="52" width="10" height="10" fill="#ebedf0" rx="2" ry="2" data-date="2025-10-15" data-count="0"/><rect class="day" x="528" y="66" width="10" height="10" fill="#ebedf0" rx="2" ry="2" data-date="2025-10-16" data-count="0"/><rect class="day" x="528" y="80" width="10" height="10" fill="#ebedf0" rx="2" ry="2" data-date="2025-10-17" data-count="0"/><rect class="day" x="528" y="94" width="10" height="10" fill="#ebedf0" rx="2" ry="2" data-date="2025-10-18" data-count="0"/><rect class="day" x="542" y="10" width="10" height="10" fill="#ebedf0" rx="2" ry="2" data-date="2025-10-19" data-count="0"/><rect class="day" x="542" y="24" width="10" height="10" fill="#ebedf0" rx="2" ry="2" data-date="2025-10-20" data-count="0"/><rect class="day" x="542" y="38" width="10" height="10" fill="#ebedf0" rx="2" ry="2" data-date="2025-10-21" data-count="0"/><rect class="day" x="542" y="52" width="10" height="10" fill="#ebedf0" rx="2" ry="2" data-date="2025-10-22" data-count="0"/><rect class="day" x="542" y="66" width="10" height="10" fill="#ebedf0" rx="2" ry="2" data-date="2025-10-23" data-count="0"/><rect class="day" x="542" y="80" width="10" height="10" fill="#ebedf0" rx="2" ry="2" data-date="2025-10-24" data-count="0"/><rect class="day" x="542" y="94" width="10" height="10" fill="#ebedf0" rx="2" ry="2" data-date="2025-10-25" data-count="0"/><rect class="day" x="556" y="10" width="10" height="10" fill="#ebedf0" rx="2" ry="2" data-date="2025-10-26" data-count="0"/><rect class="day" x="556" y="24" width="10" height="10" fill="#ebedf0" rx="2" ry="2" data-date="2025-10-27" data-count="0"/><rect class="day" x="556" y="38" width="10" height="10" fill="#ebedf0" rx="2" ry="2" data-date="2025-10-28" data-count="0"/><rect class="day" x="556" y="52" width="10" height="10" fill="#ebedf0" rx="2" ry="2" data-date="2025-10-29" data-count="0"/><rect class="day" x="556" y="66" width="10" height="10" fill="#ebedf0" rx="2" ry="2" data-date="2025-10-30" data-count="0"/><rect class="day" x="556" y="80" width="10" height="10" fill="#ebedf0" rx="2" ry="2" data-date="2025-10-31" data-count="0"/><rect class="day" x="556" y="94" width="10" height="10" fill="#ebedf0" rx="2" ry="2" data-date="2025-11-01" data-count="0"/><rect class="day" x="570" y="10" width="10" height="10" fill="#ebedf0" rx="2" ry="2" data-date="2025-11-02" data-count="0"/><rect class="day" x="570" y="24" width="10" height="10" fill="#ebedf0" rx="2" ry="2" data-date="2025-11-03" data-count="0"/><rect class="day" x="570" y="38" width="10" height="10" fill="#ebedf0" rx="2" ry="2" data-date="2025-11-04" data-count="0"/><rect class="day" x="570" y="52" width="10" height="10" fill="#ebedf0" rx="2" ry="2" data-date="2025-11-05" data-count="0"/><rect class="day" x="570" y="66" width="10" height="10" fill="#ebedf0" rx="2" ry="2" data-date="2025-11-06" data-count="0"/><rect class="day" x="570" y="80" width="10" height="10" fill="#ebedf0" rx="2" ry="2" data-date="2025-11-07" data-count="0"/><rect class="day" x="570" y="94" width="10" height="10" fill="#ebedf0" rx="2" ry="2" data-date="2025-11-08" data-count="0"/><rect class="day" x="584" y="10" width="10" height="10" fill="#ebedf0" rx="2" ry="2" data-date="2025-11-09" data-count="0"/><rect class="day" x="584" y="24" width="10" height="10" fill="#ebedf0" rx="2" ry="2" data-date="2025-11-10" data-count="0"/><rect class="day" x="584" y="38" width="10" height="10" fill="#ebedf0" rx="2" ry="2" data-date="2025-11-11" data-count="0"/><rect class="day" x="584" y="52" width="10" height="10" fill="#ebedf0" rx="2" ry="2" data-date="2025-11-12" data-count="0"/><rect class="day" x="584" y="66" width="10" height="10" fill="#ebedf0" rx="2" ry="2" data-date="2025-11-13" data-count="0"/><rect class="day" x="584" y="80" width="10" height="10" fill="#ebedf0" rx="2" ry="2" data-date="2025-11-14" data-count="0"/><rect class="day" x="584" y="94" width="10" height="10" fill="#ebedf0" rx="2" ry="2" data-date="2025-11-15" data-count="0"/><rect class="day" x="598" y="10" width="10" height="10" fill="#ebedf0" rx="2" ry="2" data-date="2025-11-16" data-count="0"/><rect class="day" x="598" y="24" width="10" height="10" fill="#ebedf0" rx="2" ry="2" data-date="2025-11-17" data-count="0"/><rect class="day" x="598" y="38" width="10" height="10" fill="#ebedf0" rx="2" ry="2" data-date="2025-11-18" data-count="0"/><rect class="day" x="598" y="52" width="10" height="10" fill="#ebedf0" rx="2" ry="2" data-date="2025-11-19" data-count="0"/><rect class="day" x="598" y="66" width="10" height="10" fill="#ebedf0" rx="2" ry="2" data-date="2025-11-20" data-count="0"/><rect class="day" x="598" y="80" width="10" height="10" fill="#ebedf0" rx="2" ry="2" data-date="2025-11-21" data-count="0"/><rect class="day" x="598" y="94" width="10" height="10" fill="#ebedf0" rx="2" ry="2" data-date="2025-11-22" data-count="0"/><rect class="day" x="612" y="10" width="10" height="10" fill="#ebedf0" rx="2" ry="2" data-date="2025-11-23" data-count="0"/><rect class="day" x="612" y="24" width="10" height="10" fill="#ebedf0" rx="2" ry="2" data-date="2025-11-24" data-count="0"/><rect class="day" x="612" y="38" width="10" height="10" fill="#ebedf0" rx="2" ry="2" data-date="2025-11-25" data-count="0"/><rect class="day" x="612" y="52" width="10" height="10" fill="#ebedf0" rx="2" ry="2" data-date="2025-11-26" data-count="0"/><rect class="day" x="612" y="66" width="10" height="10" fill="#ebedf0" rx="2" ry="2" data-date="2025-11-27" data-count="0"/><rect class="day" x="612" y="80" width="10" height="10" fill="#ebedf0" rx="2" ry="2" data-date="2025-11-28" data-count="0"/><rect class="day" x="612" y="94" width="10" height="10" fill="#ebedf0" rx="2" ry="2" data-date="2025-11-29" data-count="0"/><rect class="day" x="626" y="10" width="10" height="10" fill="#ebedf0" rx="2" ry="2" data-date="2025-11-30" data-count="0"/><rect class="day" x="626" y="24" width="10" height="10" fill="#ebedf0" rx="2" ry="2" data-date="2025-12-01" data-count="0"/><rect class="day" x="626" y="38" width="10" height="10" fill="#ebedf0" rx="2" ry="2" data-date="2025-12-02" data-count="0"/><rect class="day" x="626" y="52" width="10" height="10" fill="#ebedf0" rx="2" ry="2" data-date="2025-12-03" data-count="0"/><rect class="day" x="626" y="66" width="10" height="10" fill="#ebedf0" rx="2" ry="2" data-date="2025-12-04" data-count="0"/><rect class="day" x="626" y="80" width="10" height="10" fill="#ebedf0" rx="2" ry="2" data-date="2025-12-05" data-count="0"/><rect class="day" x="626" y="94" width="10" height="10" fill="#ebedf0" rx="2" ry="2" data-date="2025-12-06" data-count="0"/><rect class="day" x="640" y="10" width="10" height="10" fill="#ebedf0" rx="2" ry="2" data-date="2025-12-07" data-count="0"/><rect class="day" x="640" y="24" width="10" height="10" fill="#ebedf0" rx="2" ry="2" data-date="2025-12-08" data-count="0"/><rect class="day" x="640" y="38" width="10" height="10" fill="#ebedf0" rx="2" ry="2" data-date="2025-12-09" data-count="0"/><rect class="day" x="640" y="52" width="10" height="10" fill="#ebedf0" rx="2" ry="2" data-date="2025-12-10" data-count="0"/><rect class="day" x="640" y="66" width="10" height="10" fill="#ebedf0" rx="2" ry="2" data-date="2025-12-11" data-count="0"/><rect class="day" x="640" y="80" width="10" height="10" fill="#ebedf0" rx="2" ry="2" data-date="2025-12-12" data-count="0"/><rect class="day" x="640" y="94" width="10" height="10" fill="#ebedf0" rx="2" ry="2" data-date="2025-12-13" data-count="0"/><rect class="day" x="654" y="10" width="10" height="10" fill="#ebedf0" rx="2" ry="2" data-date="2025-12-14" data-count="0"/><rect class="day" x="654" y="24" width="10" height="10" fill="#ebedf0" rx="2" ry="2" data-date="2025-12-15" data-count="0"/><rect class="day" x="654" y="38" width="10" height="10" fill="#ebedf0" rx="2" ry="2" data-date="2025-12-16" data-count="0"/><rect class="day" x="654" y="52" width="10" height="10" fill="#ebedf0" rx="2" ry="2" data-date="2025-12-17" data-count="0"/><rect class="day" x="654" y="66" width="10" height="10" fill="#ebedf0" rx="2" ry="2" data-date="2025-12-18" data-count="0"/><rect class="day" x="654" y="80" width="10" height="10" fill="#ebedf0" rx="2" ry="2" data-date="2025-12-19" data-count="0"/><rect class="day" x="654" y="94" width="10" height="10" fill="#ebedf0" rx="2" ry="2" data-date="2025-12-20" data-count="0"/><rect class="day" x="668" y="10" width="10" height="10" fill="#ebedf0" rx="2" ry="2" data-date="2025-12-21" data-count="0"/><rect class="day" x="668" y="24" width="10" height="10" fill="#ebedf0" rx="2" ry="2" data-date="2025-12-22" data-count="0"/><rect class="day" x="668" y="38" width="10" height="10" fill="#ebedf0" rx="2" ry="2" data-date="2025-12-23" data-count="0"/><rect class="day" x="668" y="52" width="10" height="10" fill="#ebedf0" rx="2" ry="2" data-date="2025-12-24" data-count="0"/><rect class="day" x="668" y="66" width="10" height="10" fill="#ebedf0" rx="2" ry="2" data-date="2025-12-25" data-count="0"/><rect class="day" x="668" y="80" width="10" height="10" fill="#ebedf0" rx="2" ry="2" data-date="2025-12-26" data-count="0"/><rect class="day" x="668" y="94" width="10" height="10" fill="#ebedf0" rx="2" ry="2" data-date="2025-12-27" data-count="0"/><rect class="day" x="682" y="10" width="10" height="10" fill="#ebedf0" rx="2" ry="2" data-date="2025-12-28" data-count="0"/><rect class="day" x="682" y="24" width="10" height="10" fill="#ebedf0" rx="2" ry="2" data-date="2025-12-29" data-count="0"/><rect class="day" x="682" y="38" width="10" height="10" fill="#ebedf0" rx="2" ry="2" data-date="2025-12-30" data-count="0"/><rect class="day" x="682" y="52" width="10" height="10" fill="#ebedf0" rx="2" ry="2" data-date="2025-12-31" data-count="0"/><rect class="day" x="682" y="66" width="10" height="10" fill="#ebedf0" rx="2" ry="2" data-date="2026-01-01" data-count="0"/><rect class="day" x="682" y="80" width="10" height="10" fill="#ebedf0" rx="2" ry="2" data-date="2026-01-02" data-count="0"/><rect class="day" x="682" y="94" width="10" height="10" fill="#ebedf0" rx="2" ry="2" data-date="2026-01-03" data-count="0"/><rect class="day" x="696" y="10" width="10" height="10" fill="#ebedf0" rx="2" ry="2" data-date="2026-01-04" data-count="0"/><rect class="day" x="696" y="24" width="10" height="10" fill="#ebedf0" rx="2" ry="2" data-date="2026-01-05" data-count="0"/><rect class="day" x="696" y="38" width="10" height="10" fill="#ebedf0" rx="2" ry="2" data-date="2026-01-06" data-count="0"/><rect class="day" x="696" y="52" width="10" height="10" fill="#ebedf0" rx="2" ry="2" data-date="2026-01-07" data-count="0"/><rect class="day" x="696" y="66" width="10" height="10" fill="#ebedf0" rx="2" ry="2" data-date="2026-01-08" data-count="0"/><rect class="day" x="696" y="80" width="10" height="10" fill="#ebedf0" rx="2" ry="2" data-date="2026-01-09" data-count="0"/><rect class="day" x="696" y="94" width="10" height="10" fill="#ebedf0" rx="2" ry="2" data-date="2026-01-10" data-count="0"/><rect class="day" x="710" y="10" width="10" height="10" fill="#ebedf0" rx="2" ry="2" data-date="2026-01-11" data-count="0"/><rect class="day" x="710" y="24" width="10" height="10" fill="#ebedf0" rx="2" ry="2" data-date="2026-01-12" data-count="0"/><rect class="day" x="710" y="38" width="10" height="10" fill="#ebedf0" rx="2" ry="2" data-date="2026-01-13" data-count="0"/><rect class="day" x="710" y="52" width="10" height="10" fill="#ebedf0" rx="2" ry="2" data-date="2026-01-14" data-count="0"/><rect class="day" x="710" y="66" width="10" height="10" fill="#ebedf0" rx="2" ry="2" data-date="2026-01-15" data-count="0"/><rect class="day" x="710" y="80" width="10" height="10" fill="#ebedf0" rx="2" ry="2" data-date="2026-01-16" data-count="0"/><rect class="day" x="710" y="94" width="10" height="10" fill="#ebedf0" rx="2" ry="2" data-date="2026-01-17" data-count="0"/><rect class="day" x="724" y="10" width="10" height="10" fill="#ebedf0" rx="2" ry="2" data-date="2026-01-18" data-count="0"/><rect class="day" x="724" y="24" width="10" height="10" fill="#ebedf0" rx="2" ry="2" data-date="2026-01-19" data-count="0"/><rect class="day" x="724" y="38" width="10" height="10" fill="#ebedf0" rx="2" ry="2" data-date="2026-01-20" data-count="0"/><rect class="day" x="724" y="52" width="10" height="10" fill="#ebedf0" rx="2" ry="2" data-date="2026-01-21" data-count="0"/><rect class="day" x="724" y="66" width="10" height="10" fill="#ebedf0" rx="2" ry="2" data-date="2026-01-22" data-count="0"/><rect class="day" x="724" y="80" width="10" height="10" fill="#ebedf0" rx="2" ry="2" data-date="2026-01-23" data-count="0"/><rect class="day" x="724" y="94" width="10" height="10" fill="#ebedf0" rx="2" ry="2" data-date="2026-01-24" data-count="0"/><rect class="day" x="738" y="10" width="10" height="10" fill="#ebedf0" rx="2" ry="2" data-date="2026-01-25" data-count="0"/><rect class="day" x="738" y="24" width="10" height="10" fill="#ebedf0" rx="2" ry="2" data-date="2026-01-26" data-count="0"/><rect class="day" x="738" y="38" width="10" height="10" fill="#216e39" rx="2" ry="2" data-date="2026-01-27" data-count="55"/></svg>